{
  "asset": {
    "generator": "glTF Exporter addin for Revit",
    "version": "2.0"
  },
  "scene": 0,
  "scenes": [
    {
      "nodes": [
        0
      ]
    }
  ],
  "nodes": [
    {
      "name": "Root",
      "rotation": [
        0.707106769,
        0.0,
        0.0,
        -0.707106769
      ],
      "scale": [
        0.3048,
        0.3048,
        0.3048
      ],
      "children": [
        1,
        2
      ]
    },
    {
      "mesh": 0
    },
    {
      "mesh": 1
    }
  ],
  "meshes": [
    {
      "name": "TCXD-Concrete-CiP-M300 (B22.5)",
      "primitives": [
        {
          "attributes": {
            "POSITION": 0,
            "NORMAL": 1,
            "TEXCOORD_0": 2
          },
          "indices": 3,
          "material": 0
        }
      ]
    },
    {
      "name": "TCXD-Concrete-CiP-M150 (B12.5)",
      "primitives": [
        {
          "attributes": {
            "POSITION": 4,
            "NORMAL": 5,
            "TEXCOORD_0": 6
          },
          "indices": 7,
          "material": 1
        }
      ]
    }
  ],
  "buffers": [
    {
      "uri": "TCXD-DD-STR-KHOI NHA CHINH-CONCRETE MODEL_0.bin",
      "byteLength": 1816220
    }
  ],
  "bufferViews": [
    {
      "buffer": 0,
      "byteOffset": 0,
      "byteLength": 591384,
      "byteStride": 12,
      "target": 34962
    },
    {
      "buffer": 0,
      "byteOffset": 591384,
      "byteLength": 591384,
      "byteStride": 12,
      "target": 34962
    },
    {
      "buffer": 0,
      "byteOffset": 1182768,
      "byteLength": 394256,
      "byteStride": 8,
      "target": 34962
    },
    {
      "buffer": 0,
      "byteOffset": 1577024,
      "byteLength": 239196,
      "target": 34963
    }
  ],
  "accessors": [
    {
      "bufferView": 0,
      "byteOffset": 0,
      "componentType": 5126,
      "count": 39738,
      "type": "VEC3",
      "max": [
        158.275757,
        90.4386,
        -5.577428
      ],
      "min": [
        -127.485321,
        -174.819122,
        -9.84252
      ]
    },
    {
      "bufferView": 1,
      "byteOffset": 0,
      "componentType": 5126,
      "count": 39738,
      "type": "VEC3"
    },
    {
      "bufferView": 2,
      "byteOffset": 0,
      "componentType": 5126,
      "count": 39738,
      "type": "VEC2"
    },
    {
      "bufferView": 3,
      "byteOffset": 0,
      "componentType": 5123,
      "count": 96006,
      "type": "SCALAR"
    },
    {
      "bufferView": 0,
      "byteOffset": 476856,
      "componentType": 5126,
      "count": 9544,
      "type": "VEC3",
      "max": [
        158.603836,
        90.76668,
        -8.038057
      ],
      "min": [
        -127.813408,
        -175.2831,
        -9.84252
      ]
    },
    {
      "bufferView": 1,
      "byteOffset": 476856,
      "componentType": 5126,
      "count": 9544,
      "type": "VEC3"
    },
    {
      "bufferView": 2,
      "byteOffset": 317904,
      "componentType": 5126,
      "count": 9544,
      "type": "VEC2"
    },
    {
      "bufferView": 3,
      "byteOffset": 192012,
      "componentType": 5123,
      "count": 23592,
      "type": "SCALAR"
    }
  ],
  "materials": [
    {
      "name": "TCXD-Concrete-CiP-M300 (B22.5)",
      "pbrMetallicRoughness": {
        "baseColorFactor": [
          0.6946763,
          0.694660962,
          0.6950992,
          1.0
        ],
        "baseColorTexture": {
          "index": 0
        },
        "metallicFactor": 0.5477226,
        "roughnessFactor": 1.0
      },
      "doubleSided": true
    },
    {
      "name": "TCXD-Concrete-CiP-M150 (B12.5)",
      "pbrMetallicRoughness": {
        "baseColorFactor": [
          0.6946763,
          0.694660962,
          0.6950992,
          1.0
        ],
        "baseColorTexture": {
          "index": 0
        },
        "metallicFactor": 0.5477226,
        "roughnessFactor": 1.0
      },
      "doubleSided": true
    }
  ],
  "textures": [
    {
      "source": 0
    }
  ],
  "images": [
    {
      "uri": "Textures/Concrete.Cast-In-Place.Flat.Polished.Grey.jpg"
    }
  ]
}