{
  "asset": {
    "generator": "glTF Exporter addin for Revit",
    "version": "2.0"
  },
  "scene": 0,
  "scenes": [
    {
      "nodes": [
        0
      ]
    }
  ],
  "nodes": [
    {
      "name": "Root",
      "rotation": [
        0.707106769,
        0.0,
        0.0,
        -0.707106769
      ],
      "scale": [
        0.3048,
        0.3048,
        0.3048
      ],
      "children": [
        1,
        2,
        3
      ]
    },
    {
      "mesh": 0
    },
    {
      "mesh": 1
    },
    {
      "mesh": 2
    }
  ],
  "meshes": [
    {
      "name": "TCXD-Concrete-CiP-M300 (B22.5)",
      "primitives": [
        {
          "attributes": {
            "POSITION": 0,
            "NORMAL": 1,
            "TEXCOORD_0": 2
          },
          "indices": 3,
          "material": 0
        }
      ]
    },
    {
      "name": "TCXD-Concrete-CiP-M150 (B12.5)",
      "primitives": [
        {
          "attributes": {
            "POSITION": 4,
            "NORMAL": 5,
            "TEXCOORD_0": 6
          },
          "indices": 7,
          "material": 1
        }
      ]
    },
    {
      "name": "TCXD-Steel-CT38",
      "primitives": [
        {
          "attributes": {
            "POSITION": 8,
            "NORMAL": 9
          },
          "indices": 10,
          "material": 2
        }
      ]
    }
  ],
  "buffers": [
    {
      "uri": "TCXD-DD-STR-KHOI NHA CHINH-CONCRETE MODEL_0.bin",
      "byteLength": 974180
    }
  ],
  "bufferViews": [
    {
      "buffer": 0,
      "byteOffset": 0,
      "byteLength": 328152,
      "byteStride": 12,
      "target": 34962
    },
    {
      "buffer": 0,
      "byteOffset": 328152,
      "byteLength": 328152,
      "byteStride": 12,
      "target": 34962
    },
    {
      "buffer": 0,
      "byteOffset": 656304,
      "byteLength": 216464,
      "byteStride": 8,
      "target": 34962
    },
    {
      "buffer": 0,
      "byteOffset": 872768,
      "byteLength": 101412,
      "target": 34963
    }
  ],
  "accessors": [
    {
      "bufferView": 0,
      "byteOffset": 0,
      "componentType": 5126,
      "count": 26877,
      "type": "VEC3",
      "max": [
        158.915512,
        89.61946,
        93.99606
      ],
      "min": [
        -124.860741,
        -174.355118,
        -6.069554
      ]
    },
    {
      "bufferView": 1,
      "byteOffset": 0,
      "componentType": 5126,
      "count": 26877,
      "type": "VEC3"
    },
    {
      "bufferView": 2,
      "byteOffset": 0,
      "componentType": 5126,
      "count": 26877,
      "type": "VEC2"
    },
    {
      "bufferView": 3,
      "byteOffset": 0,
      "componentType": 5123,
      "count": 49959,
      "type": "SCALAR"
    },
    {
      "bufferView": 0,
      "byteOffset": 322524,
      "componentType": 5126,
      "count": 181,
      "type": "VEC3",
      "max": [
        152.698318,
        -9.78998852,
        -0.5577428
      ],
      "min": [
        -109.440788,
        -173.001221,
        -5.905512
      ]
    },
    {
      "bufferView": 1,
      "byteOffset": 322524,
      "componentType": 5126,
      "count": 181,
      "type": "VEC3"
    },
    {
      "bufferView": 2,
      "byteOffset": 215016,
      "componentType": 5126,
      "count": 181,
      "type": "VEC2"
    },
    {
      "bufferView": 3,
      "byteOffset": 99918,
      "componentType": 5123,
      "count": 315,
      "type": "SCALAR"
    },
    {
      "bufferView": 0,
      "byteOffset": 324696,
      "componentType": 5126,
      "count": 288,
      "type": "VEC3",
      "max": [
        147.448975,
        89.61838,
        58.61858
      ],
      "min": [
        100.861053,
        89.12625,
        55.93832
      ]
    },
    {
      "bufferView": 1,
      "byteOffset": 324696,
      "componentType": 5126,
      "count": 288,
      "type": "VEC3"
    },
    {
      "bufferView": 3,
      "byteOffset": 100548,
      "componentType": 5123,
      "count": 432,
      "type": "SCALAR"
    }
  ],
  "materials": [
    {
      "name": "TCXD-Concrete-CiP-M300 (B22.5)",
      "pbrMetallicRoughness": {
        "baseColorFactor": [
          0.6946763,
          0.694660962,
          0.6950992,
          1.0
        ],
        "baseColorTexture": {
          "index": 0
        },
        "metallicFactor": 0.5477226,
        "roughnessFactor": 1.0
      },
      "doubleSided": true
    },
    {
      "name": "TCXD-Concrete-CiP-M150 (B12.5)",
      "pbrMetallicRoughness": {
        "baseColorFactor": [
          0.6946763,
          0.694660962,
          0.6950992,
          1.0
        ],
        "baseColorTexture": {
          "index": 0
        },
        "metallicFactor": 0.5477226,
        "roughnessFactor": 1.0
      },
      "doubleSided": true
    },
    {
      "name": "TCXD-Steel-CT38",
      "pbrMetallicRoughness": {
        "baseColorFactor": [
          0.8784314,
          0.8745098,
          0.858823538,
          1.0
        ],
        "metallicFactor": 0.2,
        "roughnessFactor": 1.0
      },
      "doubleSided": true
    }
  ],
  "textures": [
    {
      "source": 0
    }
  ],
  "images": [
    {
      "uri": "Textures/Concrete.Cast-In-Place.Flat.Polished.Grey.jpg"
    }
  ]
}