{
  "asset": {
    "generator": "glTF Exporter addin for Revit",
    "version": "2.0"
  },
  "scene": 0,
  "scenes": [
    {
      "nodes": [
        0
      ]
    }
  ],
  "nodes": [
    {
      "name": "Root",
      "rotation": [
        0.707106769,
        0.0,
        0.0,
        -0.707106769
      ],
      "scale": [
        0.3048,
        0.3048,
        0.3048
      ],
      "children": [
        1,
        2,
        3,
        4,
        5,
        6,
        7,
        8,
        9,
        10,
        11,
        12,
        13,
        14,
        15
      ]
    },
    {
      "mesh": 0
    },
    {
      "mesh": 1
    },
    {
      "mesh": 2
    },
    {
      "mesh": 3
    },
    {
      "mesh": 4
    },
    {
      "mesh": 5
    },
    {
      "mesh": 6
    },
    {
      "mesh": 7
    },
    {
      "mesh": 8
    },
    {
      "mesh": 9
    },
    {
      "mesh": 10
    },
    {
      "mesh": 11
    },
    {
      "mesh": 12
    },
    {
      "mesh": 13
    },
    {
      "mesh": 14
    }
  ],
  "meshes": [
    {
      "name": "TCXD-Wall Paint-Interior-White",
      "primitives": [
        {
          "attributes": {
            "POSITION": 0,
            "NORMAL": 1,
            "TEXCOORD_0": 2
          },
          "indices": 3,
          "material": 0
        }
      ]
    },
    {
      "name": "Default Wall",
      "primitives": [
        {
          "attributes": {
            "POSITION": 4,
            "NORMAL": 5
          },
          "indices": 6,
          "material": 1
        }
      ]
    },
    {
      "name": "TCXD-Tiling-Ceramic-300x600mm",
      "primitives": [
        {
          "attributes": {
            "POSITION": 7,
            "NORMAL": 8
          },
          "indices": 9,
          "material": 2
        }
      ]
    },
    {
      "name": "TCXD-Wall Paint-Exterior-White",
      "primitives": [
        {
          "attributes": {
            "POSITION": 10,
            "NORMAL": 11,
            "TEXCOORD_0": 12
          },
          "indices": 13,
          "material": 3
        }
      ]
    },
    {
      "name": "TCXD-Brick-Concrete-10x20x40",
      "primitives": [
        {
          "attributes": {
            "POSITION": 14,
            "NORMAL": 15,
            "TEXCOORD_0": 16
          },
          "indices": 17,
          "material": 4
        }
      ]
    },
    {
      "name": "TCXD-Brick-Concrete-15x20x40",
      "primitives": [
        {
          "attributes": {
            "POSITION": 18,
            "NORMAL": 19,
            "TEXCOORD_0": 20
          },
          "indices": 21,
          "material": 5
        }
      ]
    },
    {
      "name": "TCXD-Wall Paint-Dark",
      "primitives": [
        {
          "attributes": {
            "POSITION": 22,
            "NORMAL": 23,
            "TEXCOORD_0": 24
          },
          "indices": 25,
          "material": 6
        }
      ]
    },
    {
      "name": "TCXD-Brick-Concrete-20x20x40",
      "primitives": [
        {
          "attributes": {
            "POSITION": 26,
            "NORMAL": 27,
            "TEXCOORD_0": 28
          },
          "indices": 29,
          "material": 7
        }
      ]
    },
    {
      "name": "TCXD-Wall-Paint-Son gai",
      "primitives": [
        {
          "attributes": {
            "POSITION": 30,
            "NORMAL": 31
          },
          "indices": 32,
          "material": 8
        }
      ]
    },
    {
      "name": "TCXD-Plaster-Interior",
      "primitives": [
        {
          "attributes": {
            "POSITION": 33,
            "NORMAL": 34
          },
          "indices": 35,
          "material": 9
        }
      ]
    },
    {
      "name": "TCXD-Brick-AAC-15x20x60",
      "primitives": [
        {
          "attributes": {
            "POSITION": 36,
            "NORMAL": 37,
            "TEXCOORD_0": 38
          },
          "indices": 39,
          "material": 10
        }
      ]
    },
    {
      "name": "TCXD-Tiling-Graniteto",
      "primitives": [
        {
          "attributes": {
            "POSITION": 40,
            "NORMAL": 41,
            "TEXCOORD_0": 42
          },
          "indices": 43,
          "material": 11
        }
      ]
    },
    {
      "name": "TCXD-Finish-Epoxy",
      "primitives": [
        {
          "attributes": {
            "POSITION": 44,
            "NORMAL": 45
          },
          "indices": 46,
          "material": 12
        }
      ]
    },
    {
      "name": "Brick, Common",
      "primitives": [
        {
          "attributes": {
            "POSITION": 47,
            "NORMAL": 48,
            "TEXCOORD_0": 49
          },
          "indices": 50,
          "material": 13
        }
      ]
    },
    {
      "name": "TCXD-Brick",
      "primitives": [
        {
          "attributes": {
            "POSITION": 51,
            "NORMAL": 52,
            "TEXCOORD_0": 53
          },
          "indices": 54,
          "material": 14
        }
      ]
    }
  ],
  "buffers": [
    {
      "uri": "TCXD-DD-ARC-KHOI NHA CHINH-MAIN MODEL_0.bin",
      "byteLength": 3386462
    }
  ],
  "bufferViews": [
    {
      "buffer": 0,
      "byteOffset": 0,
      "byteLength": 1320096,
      "byteStride": 12,
      "target": 34962
    },
    {
      "buffer": 0,
      "byteOffset": 1320096,
      "byteLength": 1320096,
      "byteStride": 12,
      "target": 34962
    },
    {
      "buffer": 0,
      "byteOffset": 2640192,
      "byteLength": 298784,
      "byteStride": 8,
      "target": 34962
    },
    {
      "buffer": 0,
      "byteOffset": 2938976,
      "byteLength": 447486,
      "target": 34963
    }
  ],
  "accessors": [
    {
      "bufferView": 0,
      "byteOffset": 0,
      "componentType": 5126,
      "count": 15103,
      "type": "VEC3",
      "max": [
        159.645508,
        94.6731339,
        93.60236
      ],
      "min": [
        -124.926353,
        -138.398911,
        -6.56168
      ]
    },
    {
      "bufferView": 1,
      "byteOffset": 0,
      "componentType": 5126,
      "count": 15103,
      "type": "VEC3"
    },
    {
      "bufferView": 2,
      "byteOffset": 0,
      "componentType": 5126,
      "count": 15103,
      "type": "VEC2"
    },
    {
      "bufferView": 3,
      "byteOffset": 0,
      "componentType": 5123,
      "count": 33975,
      "type": "SCALAR"
    },
    {
      "bufferView": 0,
      "byteOffset": 181236,
      "componentType": 5126,
      "count": 45798,
      "type": "VEC3",
      "max": [
        160.315887,
        94.6731339,
        93.60236
      ],
      "min": [
        -124.926422,
        -138.398911,
        -6.56168
      ]
    },
    {
      "bufferView": 1,
      "byteOffset": 181236,
      "componentType": 5126,
      "count": 45798,
      "type": "VEC3"
    },
    {
      "bufferView": 3,
      "byteOffset": 67950,
      "componentType": 5123,
      "count": 74262,
      "type": "SCALAR"
    },
    {
      "bufferView": 0,
      "byteOffset": 730812,
      "componentType": 5126,
      "count": 17929,
      "type": "VEC3",
      "max": [
        153.7564,
        93.81913,
        81.52887
      ],
      "min": [
        -124.179962,
        -123.733559,
        -5.74147
      ]
    },
    {
      "bufferView": 1,
      "byteOffset": 730812,
      "componentType": 5126,
      "count": 17929,
      "type": "VEC3"
    },
    {
      "bufferView": 3,
      "byteOffset": 216474,
      "componentType": 5123,
      "count": 29577,
      "type": "SCALAR"
    },
    {
      "bufferView": 0,
      "byteOffset": 945960,
      "componentType": 5126,
      "count": 10304,
      "type": "VEC3",
      "max": [
        159.202591,
        94.33566,
        83.1036758
      ],
      "min": [
        -123.5484,
        -154.398468,
        -6.56168
      ]
    },
    {
      "bufferView": 1,
      "byteOffset": 945960,
      "componentType": 5126,
      "count": 10304,
      "type": "VEC3"
    },
    {
      "bufferView": 2,
      "byteOffset": 120824,
      "componentType": 5126,
      "count": 10304,
      "type": "VEC2"
    },
    {
      "bufferView": 3,
      "byteOffset": 275628,
      "componentType": 5123,
      "count": 39042,
      "type": "SCALAR"
    },
    {
      "bufferView": 0,
      "byteOffset": 1069608,
      "componentType": 5126,
      "count": 5410,
      "type": "VEC3",
      "max": [
        153.7483,
        89.68511,
        83.4973755
      ],
      "min": [
        -124.926392,
        -137.611511,
        -6.56168
      ]
    },
    {
      "bufferView": 1,
      "byteOffset": 1069608,
      "componentType": 5126,
      "count": 5410,
      "type": "VEC3"
    },
    {
      "bufferView": 2,
      "byteOffset": 203256,
      "componentType": 5126,
      "count": 5410,
      "type": "VEC2"
    },
    {
      "bufferView": 3,
      "byteOffset": 353712,
      "componentType": 5123,
      "count": 10884,
      "type": "SCALAR"
    },
    {
      "bufferView": 0,
      "byteOffset": 1134528,
      "componentType": 5126,
      "count": 12,
      "type": "VEC3",
      "max": [
        152.370224,
        -62.61147,
        81.52887
      ],
      "min": [
        88.06577,
        -99.55371,
        28.3792648
      ]
    },
    {
      "bufferView": 1,
      "byteOffset": 1134528,
      "componentType": 5126,
      "count": 12,
      "type": "VEC3"
    },
    {
      "bufferView": 2,
      "byteOffset": 246536,
      "componentType": 5126,
      "count": 12,
      "type": "VEC2"
    },
    {
      "bufferView": 3,
      "byteOffset": 375480,
      "componentType": 5123,
      "count": 18,
      "type": "SCALAR"
    },
    {
      "bufferView": 0,
      "byteOffset": 1134672,
      "componentType": 5126,
      "count": 2260,
      "type": "VEC3",
      "max": [
        160.315887,
        94.6731339,
        93.60236
      ],
      "min": [
        -124.926422,
        -127.637764,
        -5.905512
      ]
    },
    {
      "bufferView": 1,
      "byteOffset": 1134672,
      "componentType": 5126,
      "count": 2260,
      "type": "VEC3"
    },
    {
      "bufferView": 2,
      "byteOffset": 246632,
      "componentType": 5126,
      "count": 2260,
      "type": "VEC2"
    },
    {
      "bufferView": 3,
      "byteOffset": 375516,
      "componentType": 5123,
      "count": 4056,
      "type": "SCALAR"
    },
    {
      "bufferView": 0,
      "byteOffset": 1161792,
      "componentType": 5126,
      "count": 1947,
      "type": "VEC3",
      "max": [
        153.7482,
        88.96437,
        93.60236
      ],
      "min": [
        -124.926392,
        -173.292511,
        -5.905512
      ]
    },
    {
      "bufferView": 1,
      "byteOffset": 1161792,
      "componentType": 5126,
      "count": 1947,
      "type": "VEC3"
    },
    {
      "bufferView": 2,
      "byteOffset": 264712,
      "componentType": 5126,
      "count": 1947,
      "type": "VEC2"
    },
    {
      "bufferView": 3,
      "byteOffset": 383628,
      "componentType": 5123,
      "count": 3441,
      "type": "SCALAR"
    },
    {
      "bufferView": 0,
      "byteOffset": 1185156,
      "componentType": 5126,
      "count": 288,
      "type": "VEC3",
      "max": [
        153.748734,
        94.14702,
        69.6363144
      ],
      "min": [
        85.21143,
        -18.3201714,
        28.3792648
      ]
    },
    {
      "bufferView": 1,
      "byteOffset": 1185156,
      "componentType": 5126,
      "count": 288,
      "type": "VEC3"
    },
    {
      "bufferView": 3,
      "byteOffset": 390510,
      "componentType": 5123,
      "count": 594,
      "type": "SCALAR"
    },
    {
      "bufferView": 0,
      "byteOffset": 1188612,
      "componentType": 5126,
      "count": 1329,
      "type": "VEC3",
      "max": [
        152.9609,
        90.27498,
        81.85696
      ],
      "min": [
        -124.138947,
        -123.684341,
        -5.57681751
      ]
    },
    {
      "bufferView": 1,
      "byteOffset": 1188612,
      "componentType": 5126,
      "count": 1329,
      "type": "VEC3"
    },
    {
      "bufferView": 3,
      "byteOffset": 391698,
      "componentType": 5123,
      "count": 2421,
      "type": "SCALAR"
    },
    {
      "bufferView": 0,
      "byteOffset": 1204560,
      "componentType": 5126,
      "count": 43,
      "type": "VEC3",
      "max": [
        152.042145,
        -19.6325722,
        67.7493439
      ],
      "min": [
        -56.5372429,
        -99.75062,
        28.3792648
      ]
    },
    {
      "bufferView": 1,
      "byteOffset": 1204560,
      "componentType": 5126,
      "count": 43,
      "type": "VEC3"
    },
    {
      "bufferView": 2,
      "byteOffset": 280288,
      "componentType": 5126,
      "count": 43,
      "type": "VEC2"
    },
    {
      "bufferView": 3,
      "byteOffset": 396540,
      "componentType": 5123,
      "count": 75,
      "type": "SCALAR"
    },
    {
      "bufferView": 0,
      "byteOffset": 1205076,
      "componentType": 5126,
      "count": 4,
      "type": "VEC3",
      "max": [
        88.00016,
        -138.005219,
        -1.476378
      ],
      "min": [
        48.7613144,
        -138.005219,
        -2.46063
      ]
    },
    {
      "bufferView": 1,
      "byteOffset": 1205076,
      "componentType": 5126,
      "count": 4,
      "type": "VEC3"
    },
    {
      "bufferView": 2,
      "byteOffset": 280632,
      "componentType": 5126,
      "count": 4,
      "type": "VEC2"
    },
    {
      "bufferView": 3,
      "byteOffset": 396690,
      "componentType": 5123,
      "count": 6,
      "type": "SCALAR"
    },
    {
      "bufferView": 0,
      "byteOffset": 1205124,
      "componentType": 5126,
      "count": 7316,
      "type": "VEC3",
      "max": [
        152.9608,
        46.7197571,
        47.30971
      ],
      "min": [
        -72.2032547,
        -45.5264969,
        14.76378
      ]
    },
    {
      "bufferView": 1,
      "byteOffset": 1205124,
      "componentType": 5126,
      "count": 7316,
      "type": "VEC3"
    },
    {
      "bufferView": 3,
      "byteOffset": 396702,
      "componentType": 5123,
      "count": 15903,
      "type": "SCALAR"
    },
    {
      "bufferView": 0,
      "byteOffset": 1292916,
      "componentType": 5126,
      "count": 120,
      "type": "VEC3",
      "max": [
        152.370239,
        -20.5183182,
        69.88189
      ],
      "min": [
        -57.1114159,
        -123.749954,
        -4.92126
      ]
    },
    {
      "bufferView": 1,
      "byteOffset": 1292916,
      "componentType": 5126,
      "count": 120,
      "type": "VEC3"
    },
    {
      "bufferView": 2,
      "byteOffset": 280664,
      "componentType": 5126,
      "count": 120,
      "type": "VEC2"
    },
    {
      "bufferView": 3,
      "byteOffset": 428508,
      "componentType": 5123,
      "count": 180,
      "type": "SCALAR"
    },
    {
      "bufferView": 0,
      "byteOffset": 1294356,
      "componentType": 5126,
      "count": 2145,
      "type": "VEC3",
      "max": [
        136.8071,
        -131.21405,
        0.3260797
      ],
      "min": [
        88.65477,
        -154.348129,
        -3.937008
      ]
    },
    {
      "bufferView": 1,
      "byteOffset": 1294356,
      "componentType": 5126,
      "count": 2145,
      "type": "VEC3"
    },
    {
      "bufferView": 2,
      "byteOffset": 281624,
      "componentType": 5126,
      "count": 2145,
      "type": "VEC2"
    },
    {
      "bufferView": 3,
      "byteOffset": 428868,
      "componentType": 5123,
      "count": 9309,
      "type": "SCALAR"
    }
  ],
  "materials": [
    {
      "name": "TCXD-Wall Paint-Interior-White",
      "pbrMetallicRoughness": {
        "baseColorFactor": [
          0.90196085,
          0.913725555,
          0.92549026,
          1.0
        ],
        "metallicFactor": 0.0,
        "roughnessFactor": 1.0
      },
      "normalTexture": {
        "index": 0,
        "scale": 0.0300000012
      },
      "doubleSided": true
    },
    {
      "name": "Default Wall",
      "pbrMetallicRoughness": {
        "baseColorFactor": [
          0.5019608,
          0.5019608,
          0.5019608,
          1.0
        ],
        "roughnessFactor": 1.0
      },
      "doubleSided": true
    },
    {
      "name": "TCXD-Tiling-Ceramic-300x600mm",
      "pbrMetallicRoughness": {
        "baseColorFactor": [
          1.0,
          1.0,
          0.875,
          1.0
        ],
        "metallicFactor": 0.0,
        "roughnessFactor": 0.25
      },
      "doubleSided": true
    },
    {
      "name": "TCXD-Wall Paint-Exterior-White",
      "pbrMetallicRoughness": {
        "baseColorFactor": [
          0.90196085,
          0.913725555,
          0.92549026,
          1.0
        ],
        "metallicFactor": 0.0,
        "roughnessFactor": 1.0
      },
      "normalTexture": {
        "index": 0,
        "scale": 0.0300000012
      },
      "doubleSided": true
    },
    {
      "name": "TCXD-Brick-Concrete-10x20x40",
      "pbrMetallicRoughness": {
        "baseColorTexture": {
          "index": 1
        },
        "metallicFactor": 0.0,
        "roughnessFactor": 1.0
      },
      "normalTexture": {
        "index": 2,
        "scale": 0.0015
      },
      "doubleSided": true
    },
    {
      "name": "TCXD-Brick-Concrete-15x20x40",
      "pbrMetallicRoughness": {
        "baseColorTexture": {
          "index": 1
        },
        "metallicFactor": 0.0,
        "roughnessFactor": 1.0
      },
      "normalTexture": {
        "index": 2,
        "scale": 0.0015
      },
      "doubleSided": true
    },
    {
      "name": "TCXD-Wall Paint-Dark",
      "pbrMetallicRoughness": {
        "baseColorFactor": [
          0.164705887,
          0.164705887,
          0.164705887,
          1.0
        ],
        "metallicFactor": 0.0,
        "roughnessFactor": 1.0
      },
      "normalTexture": {
        "index": 3,
        "scale": 0.005
      },
      "doubleSided": true
    },
    {
      "name": "TCXD-Brick-Concrete-20x20x40",
      "pbrMetallicRoughness": {
        "baseColorTexture": {
          "index": 1
        },
        "metallicFactor": 0.0,
        "roughnessFactor": 1.0
      },
      "normalTexture": {
        "index": 2,
        "scale": 0.0015
      },
      "doubleSided": true
    },
    {
      "name": "TCXD-Wall-Paint-Son gai",
      "pbrMetallicRoughness": {
        "baseColorFactor": [
          0.315,
          0.315,
          0.315,
          1.0
        ],
        "metallicFactor": 0.5,
        "roughnessFactor": 1.0
      },
      "doubleSided": true
    },
    {
      "name": "TCXD-Plaster-Interior",
      "pbrMetallicRoughness": {
        "baseColorFactor": [
          0.63,
          0.63,
          0.63,
          1.0
        ],
        "metallicFactor": 0.0,
        "roughnessFactor": 0.25
      },
      "doubleSided": true
    },
    {
      "name": "TCXD-Brick-AAC-15x20x60",
      "pbrMetallicRoughness": {
        "baseColorTexture": {
          "index": 1
        },
        "metallicFactor": 0.0,
        "roughnessFactor": 1.0
      },
      "normalTexture": {
        "index": 2,
        "scale": 0.0015
      },
      "doubleSided": true
    },
    {
      "name": "TCXD-Tiling-Graniteto",
      "pbrMetallicRoughness": {
        "baseColorFactor": [
          0.630936861,
          0.6534123,
          0.699636459,
          1.0
        ],
        "baseColorTexture": {
          "index": 4
        },
        "metallicFactor": 0.5477226,
        "roughnessFactor": 1.0
      },
      "doubleSided": true
    },
    {
      "name": "TCXD-Finish-Epoxy",
      "pbrMetallicRoughness": {
        "baseColorFactor": [
          0.315,
          0.315,
          0.315,
          1.0
        ],
        "metallicFactor": 0.5,
        "roughnessFactor": 1.0
      },
      "doubleSided": true
    },
    {
      "name": "Brick, Common",
      "pbrMetallicRoughness": {
        "baseColorTexture": {
          "index": 1
        },
        "metallicFactor": 0.0
      },
      "doubleSided": true
    },
    {
      "name": "TCXD-Brick",
      "pbrMetallicRoughness": {
        "baseColorTexture": {
          "index": 1
        },
        "metallicFactor": 0.0,
        "roughnessFactor": 1.0
      },
      "normalTexture": {
        "index": 2,
        "scale": 0.0015
      },
      "doubleSided": true
    }
  ],
  "textures": [
    {
      "source": 0
    },
    {
      "source": 1
    },
    {
      "source": 2
    },
    {
      "source": 3
    },
    {
      "source": 4
    }
  ],
  "images": [
    {
      "uri": "Textures/Finishes.Painting.Paint.Bump.jpg"
    },
    {
      "uri": "Textures/Brick_Non_Uniform_Running_Burgundy.png"
    },
    {
      "uri": "Textures/Brick_Non_Uniform_Running_bump.png"
    },
    {
      "uri": "Textures/Finishes.Painting.Paint.Flaking.Bump.jpg"
    },
    {
      "uri": "Textures/Finishes.Flooring.Marble.White.jpg"
    }
  ]
}