{
  "asset": {
    "generator": "glTF Exporter addin for Revit",
    "version": "2.0"
  },
  "scene": 0,
  "scenes": [
    {
      "nodes": [
        0
      ]
    }
  ],
  "nodes": [
    {
      "name": "Root",
      "rotation": [
        0.707106769,
        0.0,
        0.0,
        -0.707106769
      ],
      "scale": [
        0.3048,
        0.3048,
        0.3048
      ],
      "children": [
        1,
        2,
        3
      ]
    },
    {
      "mesh": 0
    },
    {
      "mesh": 1
    },
    {
      "mesh": 2
    }
  ],
  "meshes": [
    {
      "name": "TCXD-Concrete-CiP-M300 (B22.5)",
      "primitives": [
        {
          "attributes": {
            "POSITION": 0,
            "NORMAL": 1
          },
          "indices": 2,
          "material": 0
        }
      ]
    },
    {
      "name": "TCXD-Concrete-CiP-M150 (B12.5)",
      "primitives": [
        {
          "attributes": {
            "POSITION": 3,
            "NORMAL": 4
          },
          "indices": 5,
          "material": 1
        }
      ]
    },
    {
      "name": "TCXD-Concrete-CiP-M200 (B15)",
      "primitives": [
        {
          "attributes": {
            "POSITION": 6,
            "NORMAL": 7
          },
          "indices": 8,
          "material": 2
        }
      ]
    }
  ],
  "buffers": [
    {
      "uri": "TCXD-DD-ARC-LANDSCAPE&CIVIL_0.bin",
      "byteLength": 293136
    }
  ],
  "bufferViews": [
    {
      "buffer": 0,
      "byteOffset": 0,
      "byteLength": 127080,
      "byteStride": 12,
      "target": 34962
    },
    {
      "buffer": 0,
      "byteOffset": 127080,
      "byteLength": 127080,
      "byteStride": 12,
      "target": 34962
    },
    {
      "buffer": 0,
      "byteOffset": 254160,
      "byteLength": 38976,
      "target": 34963
    }
  ],
  "accessors": [
    {
      "bufferView": 0,
      "byteOffset": 0,
      "componentType": 5126,
      "count": 7174,
      "type": "VEC3",
      "max": [
        204.050323,
        295.755981,
        -6.003937
      ],
      "min": [
        -196.088058,
        -215.422745,
        -16.74901
      ]
    },
    {
      "bufferView": 1,
      "byteOffset": 0,
      "componentType": 5126,
      "count": 7174,
      "type": "VEC3"
    },
    {
      "bufferView": 2,
      "byteOffset": 0,
      "componentType": 5123,
      "count": 14268,
      "type": "SCALAR"
    },
    {
      "bufferView": 0,
      "byteOffset": 86088,
      "componentType": 5126,
      "count": 3272,
      "type": "VEC3",
      "max": [
        204.378433,
        296.142059,
        -7.38189
      ],
      "min": [
        -196.416168,
        -215.750854,
        -17.0770931
      ]
    },
    {
      "bufferView": 1,
      "byteOffset": 86088,
      "componentType": 5126,
      "count": 3272,
      "type": "VEC3"
    },
    {
      "bufferView": 2,
      "byteOffset": 28536,
      "componentType": 5123,
      "count": 5004,
      "type": "SCALAR"
    },
    {
      "bufferView": 0,
      "byteOffset": 125352,
      "componentType": 5126,
      "count": 144,
      "type": "VEC3",
      "max": [
        -83.77532,
        -208.074463,
        -15.5839891
      ],
      "min": [
        -98.04717,
        -213.821747,
        -16.2401581
      ]
    },
    {
      "bufferView": 1,
      "byteOffset": 125352,
      "componentType": 5126,
      "count": 144,
      "type": "VEC3"
    },
    {
      "bufferView": 2,
      "byteOffset": 38544,
      "componentType": 5123,
      "count": 216,
      "type": "SCALAR"
    }
  ],
  "materials": [
    {
      "name": "TCXD-Concrete-CiP-M300 (B22.5)",
      "pbrMetallicRoughness": {
        "baseColorFactor": [
          0.6946763,
          0.694660962,
          0.6950992,
          1.0
        ],
        "metallicFactor": 0.5477226,
        "roughnessFactor": 1.0
      },
      "doubleSided": true
    },
    {
      "name": "TCXD-Concrete-CiP-M150 (B12.5)",
      "pbrMetallicRoughness": {
        "baseColorFactor": [
          0.6946763,
          0.694660962,
          0.6950992,
          1.0
        ],
        "metallicFactor": 0.5477226,
        "roughnessFactor": 1.0
      },
      "doubleSided": true
    },
    {
      "name": "TCXD-Concrete-CiP-M200 (B15)",
      "pbrMetallicRoughness": {
        "baseColorFactor": [
          0.6946763,
          0.694660962,
          0.6950992,
          1.0
        ],
        "metallicFactor": 0.5477226,
        "roughnessFactor": 1.0
      },
      "doubleSided": true
    }
  ]
}